<svg id="Layer_1" data-name="Layer 1" xmlns="http://www.w3.org/2000/svg" viewBox="0 0 881.38 217.99"><title>munin_black</title><path d="M6.43,132.37c6.6.74,22.26.57,40.7-.17,0,0-37.46,33-32.33,33,12.4,0,61.2-34.43,61.2-34.43q4.62-.25,9.23-.59c1,1.73,5.38,8.58,10.7,12.47a61.57,61.57,0,0,0,8.25,5.08,1.28,1.28,0,0,0-.17,1c0,.09,2.11,8-.8,19.73a1.28,1.28,0,0,0,0,.7l13.57,41.24c0,.66.55,1-.6,1.55-2.52,1.29-5.55,1.29-8.28,1.68a5.14,5.14,0,0,0-2.84,1.4,3.64,3.64,0,0,0-.72,1.1,3.86,3.86,0,0,0-.27.95,2.85,2.85,0,0,0,0,.84.1.1,0,0,0,.11.08.08.08,0,0,0,.08-.07,2.36,2.36,0,0,1,.3-.68,3.36,3.36,0,0,1,3.49-1.52c1.59.11,3.18.33,4.78.41a11.6,11.6,0,0,0,4.65-.41,5,5,0,0,0,1.36-.57c.23-.15.44-.29.64-.44a13.4,13.4,0,0,0,2.94.86,31,31,0,0,0,8.88.14c2.49-.3,5.49-1.43,7.9-.22a4.28,4.28,0,0,1,1.22.79,6,6,0,0,1,.84.84,10,10,0,0,1,.64.9.1.1,0,0,0,.14,0,.13.13,0,0,0,0-.12,10.53,10.53,0,0,0-.36-1.08,7,7,0,0,0-.65-1.21,5.26,5.26,0,0,0-1.21-1.32c-2.48-1.92-5.79-1.62-8.68-1.71a33.44,33.44,0,0,1-7.93-1.08,11.1,11.1,0,0,1-2.25-.86c-.47-.26-.71-.42-.74-.43a.52.52,0,0,0-.16-.06l-8.66-32.26c11-8.15,14.1-22.28,14.24-22.94h0a88.41,88.41,0,0,0,19.26,1.38v0a2.37,2.37,0,0,0,.09.65l22.27,53.41c.08.62.51.93-.6,1.5-2.53,1.28-5.56,1.28-8.28,1.67a5.34,5.34,0,0,0-2.85,1.4,3.84,3.84,0,0,0-.72,1.1,3.6,3.6,0,0,0-.26.95,3.14,3.14,0,0,0-.05.84.1.1,0,0,0,.11.09.11.11,0,0,0,.08-.08,2.49,2.49,0,0,1,.3-.68,3.35,3.35,0,0,1,3.5-1.51c1.59.11,3.17.32,4.77.41a12,12,0,0,0,4.66-.41,5,5,0,0,0,1.35-.58c.23-.15.44-.28.65-.44a13.24,13.24,0,0,0,2.94.86,31.25,31.25,0,0,0,8.87.15c2.49-.31,5.49-1.44,7.91-.22a4.19,4.19,0,0,1,1.22.78,5.9,5.9,0,0,1,.83.84c.43.55.65.9.65.9a.08.08,0,0,0,.13,0,.11.11,0,0,0,0-.12s-.11-.4-.37-1.08a7.61,7.61,0,0,0-.64-1.21,5.48,5.48,0,0,0-1.22-1.31c-2.47-1.92-5.79-1.63-8.68-1.71a34,34,0,0,1-7.93-1.08,12.76,12.76,0,0,1-2.25-.86l-.73-.44h0l-12.27-33.28c6.07-8.65,5.17-21.39,5-23a.55.55,0,0,0,0-.17c2.37-.57,4.69-1.21,6.95-2,4.78-1.59,19.45-9.9,19.45-9.9s26.35-45.72,26.68-54.93l-8.86-66c-2.94-7.09-11.78-18.49-11.78-18.49s-8.34-5.59-23.73.15l-9.47,6.1a95.38,95.38,0,0,0-13.22,3c-5.4,1.81-7,8.28-7,8.28s16.72-1.13,19.64,6.57L160.74,45.1s-10.68,5.86-18.23,11a28.32,28.32,0,0,0-11.43,1.24.33.33,0,0,0-.15,0l-1.55.59c-18.29,7-17,12.78-17,12.78S90.51,81.2,82.47,85C72.63,89.63,76,93.59,76,93.59s-7.57,3.87-18.33,9.06c0,0-47.5-1.64-50.74,1.88s25.37,9.9,25.37,9.9c-9.11,4.06-18.25,7.85-25.91,10.56C6.43,125-7.59,130.85,6.43,132.37Zm172.84-116a7.93,7.93,0,0,1,8.9,0s1.35,4.92-3.78,4.92C180.89,21.25,179.27,16.33,179.27,16.33Z" transform="translate(-0.2 -0.01)"/><path d="M347.45,167.38q1.2,4.8,8.4,6a1.81,1.81,0,0,1,1.8,2,2.27,2.27,0,0,1-1,1.8,4,4,0,0,1-2.6.8c-2,0-4.66-.13-8-.4s-8.06-.4-14.2-.4q-7.39,0-13,.5c-3.73.33-6,.57-6.8.7a1.57,1.57,0,0,1-1.4-.6,2.5,2.5,0,0,1-.4-1.4,4.57,4.57,0,0,1,.3-1.6c.2-.53.5-.8.9-.8a10.82,10.82,0,0,0,2.8-.8,10.3,10.3,0,0,0,2.6-1.6q.6-.6,1.5-6.4t1.6-15.3q.71-9.49,1.2-21.9t.5-26.2V80.18a105.34,105.34,0,0,0-1-16.2q-1.8-13.2-8.4-20.3t-15.4-7.1a31,31,0,0,0-15.4,4.3,43.31,43.31,0,0,0-13.6,12.6,68.89,68.89,0,0,0-9.7,20.6,97.86,97.86,0,0,0-3.7,28.1q0,17.4,3.9,30.3a70.89,70.89,0,0,0,10.3,21.6,42.77,42.77,0,0,0,14.7,13,37.11,37.11,0,0,0,17.3,4.3h1.1a2.38,2.38,0,0,0,1.1-.2c.54-.26.87-.26,1,0a1.47,1.47,0,0,1,0,1.1,10.64,10.64,0,0,1-.5,1.4,1.66,1.66,0,0,1-.7.9,19.85,19.85,0,0,1-5.6,2.5,35.82,35.82,0,0,1-10,1.1,49.47,49.47,0,0,1-21.1-4.9,61.3,61.3,0,0,1-18.8-13.7,68.11,68.11,0,0,1-13.4-21.3,72.12,72.12,0,0,1-5.1-27.5q0-21.39,6.2-36.6t16.9-24.8a67.37,67.37,0,0,1,24.8-14.1,98.47,98.47,0,0,1,30.1-4.5,43.68,43.68,0,0,1,10.6,1.2,45.91,45.91,0,0,1,8.4,2.9,42.66,42.66,0,0,1,5.9,3.3,25.57,25.57,0,0,1,3.1,2.4,27.67,27.67,0,0,1,6.5-2.9q4.91-1.7,11.2-3.2t13.1-2.6a78.72,78.72,0,0,1,12.41-1.1q15.19.41,26.69,5a56.34,56.34,0,0,1,19.2,12.3,51,51,0,0,1,11.61,17.8,59.18,59.18,0,0,1,3.89,21.5q0,21.41-5.7,38.1a88.85,88.85,0,0,1-15.3,28.3,65.71,65.71,0,0,1-22.2,17.7,59.78,59.78,0,0,1-26.4,6.1,1.58,1.58,0,0,1-1.6-.9,3.83,3.83,0,0,1-.3-1.9,3.05,3.05,0,0,1,.7-1.7c.4-.46.8-.63,1.2-.5a4.55,4.55,0,0,0,1.6.4h1.6a24.57,24.57,0,0,0,15.4-5.6,49,49,0,0,0,12.61-15.5,91.7,91.7,0,0,0,8.5-23.4,132.16,132.16,0,0,0,3.1-29.5q0-29.79-9.1-46.4T375.25,36a24.67,24.67,0,0,0-10.8,2.4,29.51,29.51,0,0,0-8.7,6.3,33,33,0,0,0-6,8.9,33.68,33.68,0,0,0-2.9,10.2,198.08,198.08,0,0,0-1.2,22.4q-.19,15.41-.4,37.2-.19,16,.3,27.9T347.45,167.38Z" transform="translate(-0.2 -0.01)"/><path d="M447.45,94.58c-1.06-.26-1.56-.8-1.5-1.6s.57-1.26,1.5-1.4c.4-.13,1.67-.6,3.8-1.4s4.7-1.73,7.7-2.8,6.14-2.2,9.4-3.4,6.17-2.2,8.7-3l3.3-1.1a4.94,4.94,0,0,1,1.5-.3,2.77,2.77,0,0,1,1.4.5,1.09,1.09,0,0,1,.4,1.5,43,43,0,0,0-1.3,7.6q-.69,6-1.3,13.3T480,117q-.49,7.2-.5,11.4,0,16,6.8,24.7t21.2,8.7q7.41,0,12.3-3a23,23,0,0,0,7.5-7q1.8-2.59,2.4-11.4c0-1.06,0-2.46.1-4.2s.14-3.56.2-5.5.14-3.8.2-5.6.1-3.3.1-4.5a153.57,153.57,0,0,0-.5-17.1,48.29,48.29,0,0,0-2.1-11.7q-.6-2.4-2.4-2.4c-.8,0-1.56,0-2.3.1s-1.16-.5-1.3-1.7c0-.4.4-.83,1.2-1.3a47.69,47.69,0,0,1,4.6-2.1c2.14-.8,4.5-1.6,7.1-2.4s5.17-1.46,7.7-2a65.81,65.81,0,0,1,6.8-1.1,9.5,9.5,0,0,1,4.4.3.8.8,0,0,0,.3.5,2.72,2.72,0,0,1,.5,1.3q.4,1.2-.5,7.5t-1.9,20.5q-.79,9.81-1.4,19t-.6,14q0,9.41,3.5,14.9t8.7,5.5a15.48,15.48,0,0,0,6.5-1.4,27.52,27.52,0,0,0,4.5-2.4c1.07,0,1.64.47,1.7,1.4s-.16,1.54-.7,1.8q-3,2-8.3,5t-11,5.7q-5.7,2.7-10.9,4.6a25.79,25.79,0,0,1-8.4,1.9c-1.06,0-2-.7-2.9-2.1a19.37,19.37,0,0,1-2.1-5.1,49.79,49.79,0,0,1-1.6-11.8q-4.2,3-9.6,6.3t-11.2,6.2a77.77,77.77,0,0,1-11.5,4.7,35.08,35.08,0,0,1-10.5,1.8q-12.19,0-20-6.5a21,21,0,0,1-7.8-16.9c0-1.46.14-3.66.4-6.6s.6-6.26,1-10,.74-7.73,1-12,.4-8.4.4-12.4q0-9.19-2.9-14.1t-7.5-5.5Z" transform="translate(-0.2 -0.01)"/><path d="M605.85,124.38c-.13,1.2-.27,2.27-.4,3.2s-.23,2-.3,3.2-.13,2.7-.2,4.5-.1,4.17-.1,7.1a114,114,0,0,0,.5,11.8,32.18,32.18,0,0,0,1.5,7.3,7.35,7.35,0,0,0,2.5,3.7,6.49,6.49,0,0,0,3.7,1,12.16,12.16,0,0,0,3-.4c.27,0,.5.37.7,1.1s.17,1.24-.1,1.5a31.62,31.62,0,0,1-4.7,2.9,78.65,78.65,0,0,1-7.9,3.7q-4.39,1.8-9.1,3.2a28.7,28.7,0,0,1-7.9,1.4,11.2,11.2,0,0,1-4.4-.7c-1.07-.47-1.6-1-1.6-1.7a2.14,2.14,0,0,1,.2-1.2,4.64,4.64,0,0,0,.6-1,10.19,10.19,0,0,0,.6-2.5c.13-1,.34-2.16.6-3.5.27-1.86.53-4.23.8-7.1s.53-6,.8-9.4.5-6.93.7-10.6.3-7.23.3-10.7c0-1.46,0-3.3-.1-5.5s-.17-5-.3-8.5a44.15,44.15,0,0,0-1.3-9.9,21.64,21.64,0,0,0-2.8-6.6,11.77,11.77,0,0,0-3.8-3.7,8.25,8.25,0,0,0-4.1-1.2h-2a10.43,10.43,0,0,0-2,.2c-.53,0-.8-.6-.8-1.8a1,1,0,0,1,.3-.7,15.36,15.36,0,0,1,1.9-1.3c1.73-1.2,4.07-2.66,7-4.4s5.93-3.33,9-4.8,6-2.73,8.7-3.8a19.26,19.26,0,0,1,6.3-1.6q5.8,0,5.8,6.6c0,.67-.07,1.87-.2,3.6s-.23,3.5-.3,5.3-.16,3.5-.3,5.1-.2,2.67-.2,3.2q4.2-4,9-8.2a81.6,81.6,0,0,1,10.4-7.7,60.54,60.54,0,0,1,11.8-5.7,38.19,38.19,0,0,1,12.8-2.2q12,0,19.7,6.9t7.7,21.9c0,2.67-.16,5.8-.5,9.4s-.7,7.34-1.1,11.2-.76,7.67-1.1,11.4-.5,7.07-.5,10q0,16,10.4,16a16.78,16.78,0,0,0,4.5-.7,48.21,48.21,0,0,0,4.8-1.6c1.53-.6,2.9-1.2,4.1-1.8a10.09,10.09,0,0,0,2.4-1.5c.14-.13.3,0,.5.3a4.84,4.84,0,0,1,.5,1.3,3.31,3.31,0,0,1,.1,1.4,1.49,1.49,0,0,1-.3.8c-1.07.67-3.36,1.94-6.9,3.8s-7.46,3.77-11.8,5.7-8.63,3.67-12.9,5.2a32.3,32.3,0,0,1-10.2,2.3q-4.59,0-6.3-2.2a7.43,7.43,0,0,1-1.7-4.6,20.61,20.61,0,0,1,.5-4q.51-2.4,1.3-7.8.81-5.79,1.5-13.6t.7-16.8q0-17.6-6.5-26.7t-16.3-9.1a24.28,24.28,0,0,0-11,2.4,25.22,25.22,0,0,0-8.2,6.5,32.86,32.86,0,0,0-5.4,9.4A44.58,44.58,0,0,0,605.85,124.38Z" transform="translate(-0.2 -0.01)"/><path d="M729.65,142.38q0,4.2.2,8.1a19.65,19.65,0,0,0,1.4,6.7,10.39,10.39,0,0,0,3.6,4.5,11.6,11.6,0,0,0,6.8,1.7,28,28,0,0,0,5-.5,39.11,39.11,0,0,0,5.3-1.3c1.67-.53,3.13-1.06,4.4-1.6a8.9,8.9,0,0,0,2.3-1.2c.4-.4.67-.4.8,0a3.55,3.55,0,0,1,.1,1.5,5.78,5.78,0,0,1-.5,1.8,2.86,2.86,0,0,1-1,1.3c-1.33.67-3.67,1.87-7,3.6s-7.26,3.54-11.8,5.4a118,118,0,0,1-12.5,4.7,35.23,35.23,0,0,1-10.1,1.9,9.33,9.33,0,0,1-7.2-2.8,9.89,9.89,0,0,1-2.6-7,23.68,23.68,0,0,1,.1-2.4c.07-.66.17-1.53.3-2.6.13-1.33.37-3.76.7-7.3s.67-7.5,1-11.9.63-8.83.9-13.3.4-8.3.4-11.5v-7a62.73,62.73,0,0,0-.6-9.2,16.23,16.23,0,0,0-2-6.2,8.22,8.22,0,0,0-2.5-2.3,7.07,7.07,0,0,0-3.7-.9,6.26,6.26,0,0,0-2.4.5,5.13,5.13,0,0,1-1.8.5c-.26,0-.7-.4-1.3-1.2s-.57-1.4.1-1.8a54.69,54.69,0,0,1,5.8-3.2l9.6-4.8q5.61-2.79,10.8-4.9t7.4-2.1a3.24,3.24,0,0,1,3,1.3,5.39,5.39,0,0,1,.8,2.9v.8a53.21,53.21,0,0,1-.6,6.4q-.6,4.41-1.3,10.8t-1.3,14.8q-.6,8.4-.6,18.2Zm-8-104a9.64,9.64,0,0,1,3.3,2.2,60.86,60.86,0,0,1,4.7,4.6c1.6,1.74,3,3.4,4.2,5s1.8,2.67,1.8,3.2-.8,1.67-2.4,3a67.29,67.29,0,0,1-5.5,4.1c-2.06,1.4-4.06,2.64-6,3.7a10.48,10.48,0,0,1-4.1,1.6c-.4,0-1.36-.63-2.9-1.9s-3.1-2.7-4.7-4.3-3-3.16-4.3-4.7-1.9-2.56-1.9-3.1.87-1.7,2.6-3.1,3.63-2.86,5.7-4.4a70.18,70.18,0,0,1,6-4A33.35,33.35,0,0,1,721.65,38.38Z" transform="translate(-0.2 -0.01)"/><path d="M785.45,124.38c-.13,1.2-.27,2.27-.4,3.2s-.23,2-.3,3.2-.13,2.7-.2,4.5-.1,4.17-.1,7.1a114,114,0,0,0,.5,11.8,31.12,31.12,0,0,0,1.5,7.3,7.35,7.35,0,0,0,2.5,3.7,6.49,6.49,0,0,0,3.7,1,12.28,12.28,0,0,0,3-.4c.27,0,.5.37.7,1.1s.17,1.24-.1,1.5a32.19,32.19,0,0,1-4.7,2.9,79.7,79.7,0,0,1-7.9,3.7q-4.39,1.8-9.1,3.2a28.76,28.76,0,0,1-7.9,1.4,11.17,11.17,0,0,1-4.4-.7c-1.07-.47-1.6-1-1.6-1.7a2.14,2.14,0,0,1,.2-1.2,4.64,4.64,0,0,0,.6-1,10.19,10.19,0,0,0,.6-2.5c.13-1,.33-2.16.6-3.5.27-1.86.53-4.23.8-7.1s.53-6,.8-9.4.5-6.93.7-10.6.3-7.23.3-10.7c0-1.46,0-3.3-.1-5.5s-.17-5-.3-8.5a44.74,44.74,0,0,0-1.3-9.9,21.89,21.89,0,0,0-2.8-6.6A11.77,11.77,0,0,0,757,97a8.25,8.25,0,0,0-4.1-1.2h-2a10.43,10.43,0,0,0-2,.2c-.53,0-.8-.6-.8-1.8a1,1,0,0,1,.3-.7,15.36,15.36,0,0,1,1.9-1.3c1.73-1.2,4.07-2.66,7-4.4s5.93-3.33,9-4.8,6-2.73,8.7-3.8a19.2,19.2,0,0,1,6.3-1.6q5.81,0,5.8,6.6c0,.67-.07,1.87-.2,3.6s-.23,3.5-.3,5.3-.17,3.5-.3,5.1-.2,2.67-.2,3.2q4.2-4,9-8.2a81.6,81.6,0,0,1,10.4-7.7,60.54,60.54,0,0,1,11.8-5.7,38.15,38.15,0,0,1,12.8-2.2q12,0,19.7,6.9t7.7,21.9q0,4-.5,9.4t-1.1,11.2q-.6,5.8-1.1,11.4t-.5,10q0,16,10.4,16a16.78,16.78,0,0,0,4.5-.7,48.21,48.21,0,0,0,4.8-1.6c1.53-.6,2.9-1.2,4.1-1.8a10.09,10.09,0,0,0,2.4-1.5c.13-.13.3,0,.5.3a4.84,4.84,0,0,1,.5,1.3,3.48,3.48,0,0,1,.1,1.4,1.58,1.58,0,0,1-.3.8q-1.61,1-6.9,3.8t-11.8,5.7q-6.49,2.91-12.9,5.2t-10.2,2.3q-4.61,0-6.3-2.2a7.43,7.43,0,0,1-1.7-4.6,20.61,20.61,0,0,1,.5-4c.33-1.6.77-4.2,1.3-7.8q.79-5.79,1.5-13.6t.7-16.8q0-17.6-6.5-26.7t-16.3-9.1a24.28,24.28,0,0,0-11,2.4,25.22,25.22,0,0,0-8.2,6.5,32.63,32.63,0,0,0-5.4,9.4A44.58,44.58,0,0,0,785.45,124.38Z" transform="translate(-0.2 -0.01)"/></svg>